<svg width="17" height="16" viewBox="0 0 17 16" fill="none" xmlns="http://www.w3.org/2000/svg">
<g clip-path="url(#clip0_1_2217)">
<path d="M3.82264 9.66905L3.26397 11.7482L1.22201 11.7912C0.611766 10.6629 0.265625 9.37192 0.265625 8.00005C0.265625 6.67345 0.589258 5.42245 1.16292 4.32092H1.16336L2.98127 4.65317L3.77763 6.45455C3.61095 6.93895 3.52011 7.45895 3.52011 8.00005C3.52017 8.5873 3.62688 9.14995 3.82264 9.66905Z" fill="#FBBB00"/>
<path d="M16.1755 6.50562C16.2676 6.98955 16.3157 7.48933 16.3157 8.00012C16.3157 8.57287 16.2553 9.13155 16.1402 9.67046C15.7495 11.5043 14.7288 13.1056 13.3147 14.2388L13.3143 14.2384L11.0245 14.1219L10.7004 12.1052C11.6387 11.5566 12.372 10.6981 12.7583 9.67046H8.4671V6.50562H12.8209H16.1755Z" fill="#518EF8"/>
<path d="M13.3143 14.2382L13.3148 14.2386C11.9395 15.3406 10.1925 15.9999 8.29078 15.9999C5.23467 15.9999 2.57761 14.2971 1.22217 11.7911L3.8228 9.66895C4.50051 11.472 6.24529 12.7555 8.29078 12.7555C9.16999 12.7555 9.99368 12.5186 10.7005 12.105L13.3143 14.2382Z" fill="#28B446"/>
<path d="M13.4129 1.84175L10.8132 3.9635C10.0817 3.50769 9.21699 3.24438 8.29061 3.24438C6.19881 3.24438 4.4214 4.58678 3.77764 6.4545L1.16334 4.32088H1.1629C2.4985 1.75384 5.18907 0 8.29061 0C10.2378 0 12.0231 0.691438 13.4129 1.84175Z" fill="#F14336"/>
</g>
<defs>
<clipPath id="clip0_1_2217">
<rect width="16.05" height="16" fill="white" transform="translate(0.265625)"/>
</clipPath>
</defs>
</svg>
